<svg id="visual" preserveAspectRatio="none" viewBox="0 0 900 600" width="900" height="600" xmlns="http://www.w3.org/2000/svg" xmlns:xlink="http://www.w3.org/1999/xlink" version="1.1"><rect x="0" y="0" width="900" height="600" fill="#001220"></rect><path d="M0 406L21.5 409.2C43 412.3 86 418.7 128.8 424C171.7 429.3 214.3 433.7 257.2 422.5C300 411.3 343 384.7 385.8 382.7C428.7 380.7 471.3 403.3 514.2 414.8C557 426.3 600 426.7 642.8 415.7C685.7 404.7 728.3 382.3 771.2 378.3C814 374.3 857 388.7 878.5 395.8L900 403L900 601L878.5 601C857 601 814 601 771.2 601C728.3 601 685.7 601 642.8 601C600 601 557 601 514.2 601C471.3 601 428.7 601 385.8 601C343 601 300 601 257.2 601C214.3 601 171.7 601 128.8 601C86 601 43 601 21.5 601L0 601Z" fill="#fa7268"></path><path d="M0 462L21.5 460C43 458 86 454 128.8 443.8C171.7 433.7 214.3 417.3 257.2 412.7C300 408 343 415 385.8 421.8C428.7 428.7 471.3 435.3 514.2 441.8C557 448.3 600 454.7 642.8 459.3C685.7 464 728.3 467 771.2 468.3C814 469.7 857 469.3 878.5 469.2L900 469L900 601L878.5 601C857 601 814 601 771.2 601C728.3 601 685.7 601 642.8 601C600 601 557 601 514.2 601C471.3 601 428.7 601 385.8 601C343 601 300 601 257.2 601C214.3 601 171.7 601 128.8 601C86 601 43 601 21.5 601L0 601Z" fill="#ef5f67"></path><path d="M0 467L21.5 462.8C43 458.7 86 450.3 128.8 452.8C171.7 455.3 214.3 468.7 257.2 473.5C300 478.3 343 474.7 385.8 469.3C428.7 464 471.3 457 514.2 458C557 459 600 468 642.8 466.8C685.7 465.7 728.3 454.3 771.2 453.5C814 452.7 857 462.3 878.5 467.2L900 472L900 601L878.5 601C857 601 814 601 771.2 601C728.3 601 685.7 601 642.8 601C600 601 557 601 514.2 601C471.3 601 428.7 601 385.8 601C343 601 300 601 257.2 601C214.3 601 171.7 601 128.8 601C86 601 43 601 21.5 601L0 601Z" fill="#e34c67"></path><path d="M0 511L21.5 509.2C43 507.3 86 503.7 128.8 500.2C171.7 496.7 214.3 493.3 257.2 500.3C300 507.3 343 524.7 385.8 523.5C428.7 522.3 471.3 502.7 514.2 498.3C557 494 600 505 642.8 514C685.7 523 728.3 530 771.2 532.2C814 534.3 857 531.7 878.5 530.3L900 529L900 601L878.5 601C857 601 814 601 771.2 601C728.3 601 685.7 601 642.8 601C600 601 557 601 514.2 601C471.3 601 428.7 601 385.8 601C343 601 300 601 257.2 601C214.3 601 171.7 601 128.8 601C86 601 43 601 21.5 601L0 601Z" fill="#d53867"></path><path d="M0 533L21.5 537.2C43 541.3 86 549.7 128.8 555C171.7 560.3 214.3 562.7 257.2 563.3C300 564 343 563 385.8 561.5C428.7 560 471.3 558 514.2 552.8C557 547.7 600 539.3 642.8 538.3C685.7 537.3 728.3 543.7 771.2 544.7C814 545.7 857 541.3 878.5 539.2L900 537L900 601L878.5 601C857 601 814 601 771.2 601C728.3 601 685.7 601 642.8 601C600 601 557 601 514.2 601C471.3 601 428.7 601 385.8 601C343 601 300 601 257.2 601C214.3 601 171.7 601 128.8 601C86 601 43 601 21.5 601L0 601Z" fill="#c62368"></path></svg>